<?xml version="1.0" encoding="utf-8"?>
<!-- Svg Vector Icons : http://www.onlinewebfonts.com/icon -->
<!DOCTYPE svg PUBLIC "-//W3C//DTD SVG 1.1//EN" "http://www.w3.org/Graphics/SVG/1.1/DTD/svg11.dtd">
<svg version="1.1" xmlns="http://www.w3.org/2000/svg" xmlns:xlink="http://www.w3.org/1999/xlink" x="0px" y="0px" viewBox="0 0 256 256" enable-background="new 0 0 256 256" xml:space="preserve">
<metadata> Svg Vector Icons : http://www.onlinewebfonts.com/icon </metadata>
<g><g><path fill="#000000" d="M69,94h118c4.7,0,8.4-3.8,8.4-8.4c0-4.7-3.8-8.4-8.4-8.4H69c-4.7,0-8.4,3.8-8.4,8.4C60.6,90.2,64.3,94,69,94z"/><path fill="#000000" d="M69,144.4h91.7c4.7,0,8.4-3.8,8.4-8.4c0-4.7-3.8-8.4-8.4-8.4H69c-4.7,0-8.4,3.8-8.4,8.4C60.6,140.7,64.3,144.4,69,144.4z"/><path fill="#000000" d="M69,195h118c4.7,0,8.4-3.8,8.4-8.4c0-4.7-3.8-8.4-8.4-8.4H69c-4.7,0-8.4,3.8-8.4,8.4C60.6,191.3,64.3,195,69,195z"/><path fill="#000000" d="M212.3,26.5h-8.4c-4.7,0-8.4,3.8-8.4,8.4s3.8,8.4,8.4,8.4h8.4c9.3,0,16.9,7.6,16.9,16.9v160.1c0,9.3-7.6,16.9-16.9,16.9H43.7c-9.3,0-16.9-7.6-16.9-16.9V60.2c0-9.3,7.6-16.9,16.9-16.9h8.4c4.7,0,8.4-3.8,8.4-8.4c0-4.7-3.8-8.4-8.4-8.4h-8.4C25.1,26.5,10,41.6,10,60.2v160.2c0,18.6,15.1,33.7,33.7,33.7h168.6c18.6,0,33.7-15.1,33.7-33.7V60.2C246,41.6,230.9,26.5,212.3,26.5z"/><path fill="#000000" d="M77.1,43.4h99.4c7,0,12.6-5.7,12.6-12.6s-5.7-12.6-12.6-12.6h-32.2c-0.1-9-7.3-16.2-16.3-16.2s-16.2,7.2-16.3,16.2H77.1c-7,0-12.6,5.7-12.6,12.6C64.5,37.7,70.1,43.4,77.1,43.4z"/></g></g>
</svg>